<?xml version="1.0" encoding="UTF-8" standalone="no"?>
<!-- Created with Inkscape (http://www.inkscape.org/) -->
<svg
   xmlns:svg="http://www.w3.org/2000/svg"
   xmlns="http://www.w3.org/2000/svg"
   version="1.0"
   width="485.27997pt"
   height="437.89005pt"
   id="svg4050">
  <defs
     id="defs4053" />
  <path
     d="M 212.32666,27.362183 L 30.735442,511.37292 L 575.50908,511.37292 L 212.32666,27.362183 z "
     style="fill:none;fill-opacity:0.75;fill-rule:evenodd;stroke:#000000;stroke-width:1.47088337px;stroke-linecap:butt;stroke-linejoin:miter;stroke-opacity:1"
     id="path4057" />
  <path
     d="M 212.32666,27.362183 L 212.32666,511.37292"
     style="fill:none;fill-opacity:0.75;fill-rule:evenodd;stroke:#1538f6;stroke-width:1.47088337px;stroke-linecap:butt;stroke-linejoin:miter;stroke-opacity:1"
     id="path4059" />
  <text
     x="11"
     y="537.36218"
     style="font-size:32px;font-style:italic;font-variant:normal;font-weight:bold;font-stretch:normal;text-align:start;line-height:125%;writing-mode:lr-tb;text-anchor:start;fill:#000000;fill-opacity:1;stroke:none;stroke-width:1px;stroke-linecap:butt;stroke-linejoin:miter;stroke-opacity:1;font-family:Times New Roman"
     id="text4934"
     xml:space="preserve"><tspan
       x="11"
       y="537.36218"
       id="tspan4936">A</tspan></text>
  <text
     x="575.8125"
     y="538.54968"
     style="font-size:32px;font-style:italic;font-variant:normal;font-weight:bold;font-stretch:normal;text-align:start;line-height:125%;writing-mode:lr-tb;text-anchor:start;fill:#000000;fill-opacity:1;stroke:none;stroke-width:1px;stroke-linecap:butt;stroke-linejoin:miter;stroke-opacity:1;font-family:Times New Roman"
     id="text4938"
     xml:space="preserve"><tspan
       x="575.8125"
       y="538.54968"
       id="tspan4940">B</tspan></text>
  <text
     x="181.9375"
     y="32.362183"
     style="font-size:32px;font-style:italic;font-variant:normal;font-weight:bold;font-stretch:normal;text-align:start;line-height:125%;writing-mode:lr-tb;text-anchor:start;fill:#000000;fill-opacity:1;stroke:none;stroke-width:1px;stroke-linecap:butt;stroke-linejoin:miter;stroke-opacity:1;font-family:Times New Roman"
     id="text4942"
     xml:space="preserve"><tspan
       x="181.9375"
       y="32.362183"
       id="tspan4944">C</tspan></text>
  <text
     x="296.0625"
     y="537.36218"
     style="font-size:32px;font-style:italic;font-variant:normal;font-weight:bold;font-stretch:normal;text-align:start;line-height:125%;writing-mode:lr-tb;text-anchor:start;fill:#000000;fill-opacity:1;stroke:none;stroke-width:1px;stroke-linecap:butt;stroke-linejoin:miter;stroke-opacity:1;font-family:Times New Roman"
     id="text4946"
     xml:space="preserve"><tspan
       x="296.0625"
       y="537.36218"
       id="tspan4948">c</tspan></text>
  <text
     x="399.375"
     y="262.36218"
     style="font-size:32px;font-style:italic;font-variant:normal;font-weight:bold;font-stretch:normal;text-align:start;line-height:125%;writing-mode:lr-tb;text-anchor:start;fill:#000000;fill-opacity:1;stroke:none;stroke-width:1px;stroke-linecap:butt;stroke-linejoin:miter;stroke-opacity:1;font-family:Times New Roman"
     id="text4950"
     xml:space="preserve"><tspan
       x="399.375"
       y="262.36218"
       id="tspan4952">a</tspan></text>
  <text
     x="100"
     y="266.92468"
     style="font-size:32px;font-style:italic;font-variant:normal;font-weight:bold;font-stretch:normal;text-align:start;line-height:125%;writing-mode:lr-tb;text-anchor:start;fill:#000000;fill-opacity:1;stroke:none;stroke-width:1px;stroke-linecap:butt;stroke-linejoin:miter;stroke-opacity:1;font-family:Times New Roman"
     id="text4954"
     xml:space="preserve"><tspan
       x="100"
       y="266.92468"
       id="tspan4956">b</tspan></text>
  <text
     x="220"
     y="294.03406"
     style="font-size:32px;font-style:italic;font-variant:normal;font-weight:bold;font-stretch:normal;text-align:start;line-height:125%;writing-mode:lr-tb;text-anchor:start;fill:#000000;fill-opacity:1;stroke:none;stroke-width:1px;stroke-linecap:butt;stroke-linejoin:miter;stroke-opacity:1;font-family:Times New Roman"
     id="text4958"
     xml:space="preserve"><tspan
       x="220"
       y="294.03406"
       id="tspan4960">h</tspan></text>
  <path
     d="M 60.28125,487.54968 L 62.875,487.54968 L 60.84375,494.65906 C 60.708318,495.10698 60.494777,495.81011 60.203125,496.76843 C 60.598943,498.3726 60.895818,499.33094 61.09375,499.64343 C 61.468734,500.21635 61.942692,500.50281 62.515625,500.50281 C 62.932274,500.50281 63.317691,500.33093 63.671875,499.98718 C 64.026023,499.64343 64.260398,499.10698 64.375,498.37781 L 65,498.37781 C 64.854147,499.87781 64.536439,500.91427 64.046875,501.48718 C 63.56769,502.0601 63.010399,502.34656 62.375,502.34656 C 61.781234,502.34656 61.239568,502.09656 60.75,501.59656 C 60.270819,501.09656 59.838527,500.02364 59.453125,498.37781 C 58.994778,499.28406 58.546862,499.97156 58.109375,500.44031 C 57.49478,501.08614 56.828114,501.56531 56.109375,501.87781 C 55.390615,502.20072 54.572908,502.36218 53.65625,502.36218 C 51.354161,502.36218 49.661454,501.59656 48.578125,500.06531 C 47.49479,498.53406 46.953124,496.78927 46.953125,494.83093 C 46.953124,492.53928 47.58854,490.68511 48.859375,489.26843 C 50.130204,487.84136 51.619786,487.12782 53.328125,487.12781 C 54.515616,487.12782 55.56249,487.49241 56.46875,488.22156 C 57.374988,488.94032 58.197904,490.28407 58.9375,492.25281 L 60.28125,487.54968 M 58.390625,494.00281 C 57.828113,491.85698 57.104155,490.36219 56.21875,489.51843 C 55.333324,488.66428 54.432283,488.2372 53.515625,488.23718 C 52.494785,488.2372 51.645827,488.7997 50.96875,489.92468 C 50.291662,491.03928 49.953121,492.82052 49.953125,495.26843 C 49.953121,496.71635 50.098954,497.85698 50.390625,498.69031 C 50.682287,499.51323 51.119786,500.15385 51.703125,500.61218 C 52.296868,501.0601 52.921868,501.28406 53.578125,501.28406 C 54.3802,501.28406 55.114574,500.91427 55.78125,500.17468 C 56.687489,499.17469 57.55728,497.1174 58.390625,494.00281"
     style="font-size:32px;font-style:normal;font-variant:normal;font-weight:normal;font-stretch:normal;text-align:start;line-height:125%;writing-mode:lr-tb;text-anchor:start;fill:#000000;fill-opacity:1;stroke:none;stroke-width:1px;stroke-linecap:butt;stroke-linejoin:miter;stroke-opacity:1;font-family:Symbol"
     id="text4962" />
  <path
     d="M 535.15625,494.23718 L 535.15625,496.87781 C 535.15624,498.5653 534.94791,500.39343 534.53125,502.36218 L 531.89063,502.36218 C 532.17187,501.07051 532.33854,500.1903 532.39063,499.72156 C 532.52604,498.26322 532.59375,497.19551 532.59375,496.51843 L 532.59375,480.54968 C 532.59375,478.68512 532.77604,477.30491 533.14063,476.40906 C 533.51562,475.50283 534.18229,474.74762 535.14063,474.14343 C 536.10937,473.53929 537.26562,473.2372 538.60938,473.23718 C 540.47395,473.2372 541.96353,473.7372 543.07813,474.73718 C 544.19269,475.7372 544.74999,476.9247 544.75,478.29968 C 544.74999,479.18512 544.52082,480.02886 544.0625,480.83093 C 543.61457,481.62261 542.91665,482.31011 541.96875,482.89343 C 544.7604,484.22678 546.15623,486.29969 546.15625,489.11218 C 546.15623,490.36219 545.86457,491.52885 545.28125,492.61218 C 544.6979,493.69552 543.89582,494.52364 542.875,495.09656 C 541.85415,495.65906 540.80207,495.94031 539.71875,495.94031 C 539.02082,495.94031 538.32812,495.82052 537.64063,495.58093 C 536.96353,495.34135 536.13541,494.89343 535.15625,494.23718 M 535.15625,493.00281 C 536.16666,493.71114 537.04687,494.22156 537.79688,494.53406 C 538.35937,494.76322 538.92187,494.87781 539.48438,494.87781 C 540.53645,494.87781 541.41666,494.44552 542.125,493.58093 C 542.84374,492.70594 543.20311,491.32573 543.20313,489.44031 C 543.20311,488.25281 543.03124,487.21636 542.6875,486.33093 C 542.35415,485.43511 541.7604,484.45594 540.90625,483.39343 C 540.18749,483.63303 539.5677,483.75282 539.04688,483.75281 C 538.42187,483.75282 537.97916,483.65907 537.71875,483.47156 C 537.46874,483.28407 537.34374,483.08094 537.34375,482.86218 C 537.34374,482.66428 537.4427,482.4872 537.64063,482.33093 C 537.83853,482.1747 538.15624,482.09657 538.59375,482.09656 C 539.10416,482.09657 539.87499,482.23199 540.90625,482.50281 C 541.63541,481.05491 541.99999,479.68512 542,478.39343 C 541.99999,477.08095 541.67707,476.06533 541.03125,475.34656 C 540.38541,474.62783 539.58332,474.26845 538.625,474.26843 C 537.41666,474.26845 536.47916,474.77887 535.8125,475.79968 C 535.37499,476.47678 535.15624,477.56533 535.15625,479.06531 L 535.15625,493.00281"
     style="font-size:32px;font-style:normal;font-variant:normal;font-weight:normal;font-stretch:normal;text-align:start;line-height:125%;writing-mode:lr-tb;text-anchor:start;fill:#000000;fill-opacity:1;stroke:none;stroke-width:1px;stroke-linecap:butt;stroke-linejoin:miter;stroke-opacity:1;font-family:Symbol"
     id="text4966" />
  <path
     d="M 230.54688,61.143433 L 233.15625,61.143433 C 232.98957,61.518447 232.1302,63.299695 230.57813,66.487183 C 229.93228,67.820524 229.46874,68.830939 229.1875,69.518433 C 229.06249,69.799688 228.92187,70.10698 228.76563,70.440308 L 226.96875,74.284058 C 227.04166,74.950725 227.09374,75.565308 227.125,76.127808 C 227.15624,76.690306 227.17187,77.200723 227.17188,77.659058 C 227.17187,79.075721 227.0677,80.16947 226.85938,80.940308 C 226.71353,81.481968 226.52083,81.85176 226.28125,82.049683 C 226.04166,82.258009 225.78124,82.362176 225.5,82.362183 C 225.15624,82.362176 224.84895,82.216343 224.57813,81.924683 C 224.3177,81.63301 224.1875,81.25801 224.1875,80.799683 C 224.1875,79.997595 224.34895,79.070512 224.67188,78.018433 C 224.99479,76.976764 225.47395,75.804891 226.10938,74.502808 C 225.34895,69.169481 224.73958,65.950734 224.28125,64.846558 C 223.83333,63.742403 223.20833,63.19032 222.40625,63.190308 C 221.91666,63.19032 221.53125,63.341361 221.25,63.643433 C 220.96875,63.935111 220.75521,64.601777 220.60938,65.643433 L 220,65.643433 C 219.98958,65.330943 219.98438,65.096568 219.98438,64.940308 C 219.98438,63.50282 220.26562,62.419487 220.82813,61.690308 C 221.25521,61.148655 221.82812,60.877822 222.54688,60.877808 C 223.17187,60.877822 223.68229,61.065322 224.07813,61.440308 C 224.61979,61.971571 225.10416,63.12782 225.53125,64.909058 C 226.07291,67.221566 226.49479,69.737188 226.79688,72.455933 L 228.17188,67.815308 C 228.78645,65.731984 229.57812,63.508028 230.54688,61.143433"
     style="font-size:32px;font-style:normal;font-variant:normal;font-weight:normal;font-stretch:normal;text-align:start;line-height:125%;writing-mode:lr-tb;text-anchor:start;fill:#000000;fill-opacity:1;stroke:none;stroke-width:1px;stroke-linecap:butt;stroke-linejoin:miter;stroke-opacity:1;font-family:Symbol"
     id="text4970" />
</svg>
